<svg version="1.2" xmlns="http://www.w3.org/2000/svg" viewBox="0 0 128 128" width="128" height="128">
	<title>nextjs-original-wordmark (1)-svg</title>
	<style>
		.s0 { fill: #ffffff } 
	</style>
	<path id="Layer" class="s0" d="m0 51.1v25.8h4.4v-20.3l16.3 20.3h27.7v-4.1h-17.8v-6.8h14.3v-4.2h-14.3v-6.6h17.8v-4.1h-22.3v4.1 21.5l-20.6-25.6zm85.1 0v4.1h9v21.7h4.5v-21.7h8.8v-4.1c0 0-22.3 0-22.3 0zm-31.3 0l20.7 25.8h5.8l-10.3-12.9 10.3-12.9h-5.8l-7.4 9.3-7.5-9.3c0 0-5.8 0-5.8 0zm70.2 14.6q-1.2 0-2.1 0.4-0.9 0.4-1.4 1.1-0.5 0.7-0.5 1.7-0.1 1.1 0.7 1.8 0.8 0.7 2.2 1.1l1.2 0.3q0.1 0 0.3 0 0.1 0.1 0.2 0.1 0.1 0.1 0.3 0.1 0.1 0.1 0.2 0.1 0.1 0.1 0.2 0.1 0.1 0 0.2 0.1 0.1 0.1 0.2 0.1 0 0.1 0.1 0.2 0.1 0 0.1 0.1 0.1 0.1 0.1 0.2 0 0.1 0 0.2 0.1 0.1 0.1 0.2 0 0.1-0.1 0.2 0 0.1 0 0.2-0.1 0.1-0.1 0.2-0.1 0.1-0.1 0.2-0.1 0.1-0.2 0.1-0.1 0.1-0.2 0.2-0.1 0.1-0.2 0.1-0.1 0.1-0.2 0.1-0.1 0.1-0.3 0.1-0.1 0-0.2 0.1-0.2 0-0.3 0-0.2 0-0.3 0-0.2 0-0.3 0-0.1 0-0.3 0-0.1-0.1-0.3-0.1-0.1 0-0.2-0.1-0.2 0-0.3-0.1-0.1 0-0.2-0.1-0.1-0.1-0.2-0.2-0.1 0-0.1-0.1-0.1-0.1-0.2-0.2 0-0.2-0.1-0.3 0-0.1-0.1-0.2 0-0.1 0-0.3h-1.9q0 1.1 0.5 1.8 0.6 0.8 1.5 1.2 0.9 0.4 2.2 0.4 1.3 0 2.2-0.4 1-0.4 1.4-1.2 0.5-0.7 0.5-1.6 0-0.7-0.2-1.2-0.1-0.2-0.2-0.3-0.1-0.1-0.2-0.2 0-0.1-0.1-0.2-0.1-0.1-0.3-0.2-0.1-0.1-0.2-0.2-0.1-0.1-0.3-0.2-0.1 0-0.2-0.1-0.1-0.1-0.3-0.1-0.1-0.1-0.3-0.1-0.1-0.1-0.3-0.1-0.1-0.1-0.3-0.1-0.1-0.1-0.3-0.1l-1-0.3q-0.1 0-0.2 0 0 0-0.1 0-0.1-0.1-0.2-0.1-0.1 0-0.2-0.1 0 0-0.1 0-0.1 0-0.2-0.1 0 0-0.1-0.1-0.1 0-0.2 0 0-0.1-0.1-0.1 0-0.1-0.1-0.1-0.1-0.1-0.1-0.1-0.1-0.1-0.1-0.2 0 0-0.1-0.1 0-0.1 0-0.1 0-0.1 0-0.2-0.1-0.1 0-0.1 0-0.1 0-0.2 0-0.1 0-0.2 0-0.1 0.1-0.2 0-0.1 0.1-0.2 0.2-0.3 0.7-0.5 0.1 0 0.2 0 0.2-0.1 0.3-0.1 0.1 0 0.3 0 0.1 0 0.2 0 0.9 0 1.5 0.3 0.1 0.1 0.2 0.3 0.1 0.1 0.2 0.2 0.1 0.1 0.1 0.3 0.1 0.2 0.1 0.3h1.9q0-0.2-0.1-0.4 0-0.2-0.1-0.4 0-0.2-0.1-0.4-0.1-0.2-0.2-0.4-0.5-0.7-1.4-1.1-0.9-0.4-2-0.4zm-8 0.2v7.5q0 0.6-0.2 1-0.1 0.1-0.1 0.1-0.1 0.1-0.1 0.2-0.1 0.1-0.2 0.1 0 0.1-0.1 0.1-0.4 0.2-0.8 0.2-0.5 0-0.8-0.1-0.1-0.1-0.2-0.1 0-0.1-0.1-0.1-0.1-0.1-0.1-0.2-0.1 0-0.1-0.1-0.1-0.1-0.1-0.2 0-0.1-0.1-0.2 0-0.1 0-0.2 0-0.1 0-0.2h-2q0 1 0.5 1.7 0.1 0.2 0.2 0.3 0.1 0.2 0.3 0.3 0.2 0.1 0.3 0.2 0.2 0.1 0.4 0.2 0.2 0.1 0.4 0.2 0.2 0 0.4 0.1 0.2 0 0.5 0 0.2 0 0.4 0 1 0 1.8-0.4 0.2 0 0.4-0.2 0.2-0.1 0.3-0.2 0.2-0.2 0.3-0.4 0.2-0.1 0.3-0.3 0.4-0.8 0.4-1.8v-7.5zm-53.3 0l-8.9 11h5.8l6-7.4zm45.8 8.5q-0.5 0-0.9 0.4 0 0-0.1 0.1-0.1 0.1-0.1 0.2-0.1 0.1-0.1 0.2 0 0.1 0 0.3 0 0.1 0 0.2 0 0.1 0.1 0.2 0 0.1 0.1 0.2 0.1 0.1 0.1 0.2 0.4 0.3 0.9 0.3 0 0 0.1 0 0.1 0 0.2 0 0 0 0.1-0.1 0.1 0 0.1 0 0.3-0.2 0.5-0.5 0 0 0-0.1 0.1-0.1 0.1-0.1 0-0.1 0-0.2 0-0.1 0-0.1 0-0.2 0-0.3 0-0.1-0.1-0.2 0-0.1-0.1-0.2 0-0.1-0.1-0.1-0.1-0.1-0.2-0.2-0.1-0.1-0.2-0.1-0.1 0-0.2-0.1-0.1 0-0.2 0z"/>
</svg>